<svg id="Layer_1" data-name="Layer 1" xmlns="http://www.w3.org/2000/svg" viewBox="0 0 50 50"><defs><style>.cls-1{fill:#0077b7;}.cls-2{fill:#fff;}</style></defs><title>i-linkedin</title><circle class="cls-1" cx="25" cy="25" r="25"/><path class="cls-2" d="M19.66,21.43h-4a.32.32,0,0,0-.32.33v12.9a.32.32,0,0,0,.32.32h4a.33.33,0,0,0,.32-.32V21.76A.33.33,0,0,0,19.66,21.43Z"/><path class="cls-2" d="M17.65,15a2.65,2.65,0,1,0,2.65,2.65A2.65,2.65,0,0,0,17.65,15Z"/><path class="cls-2" d="M29.87,21.11a4.75,4.75,0,0,0-3.53,1.48v-.83a.32.32,0,0,0-.32-.33H22.17a.32.32,0,0,0-.32.33v12.9a.32.32,0,0,0,.32.32h4a.32.32,0,0,0,.32-.32V28.27c0-2.15.59-3,2.08-3,1.64,0,1.77,1.34,1.77,3.09v6.28a.32.32,0,0,0,.32.32h4a.32.32,0,0,0,.32-.32V27.58C35,24.38,34.39,21.11,29.87,21.11Z"/></svg>