<svg id="Layer_1" data-name="Layer 1" xmlns="http://www.w3.org/2000/svg" viewBox="0 0 50 50"><defs><style>.cls-1{fill:#1da1f2;}.cls-2{fill:#fff;}</style></defs><title>i-twitter</title><circle class="cls-1" cx="25" cy="25" r="25"/><path class="cls-2" d="M36,18.18a9.19,9.19,0,0,1-2.6.71,4.48,4.48,0,0,0,2-2.49,9.26,9.26,0,0,1-2.86,1.09,4.51,4.51,0,0,0-7.81,3.08,4.28,4.28,0,0,0,.11,1,12.76,12.76,0,0,1-9.3-4.72,4.5,4.5,0,0,0,1.39,6,4.4,4.4,0,0,1-2-.55v.05a4.53,4.53,0,0,0,3.61,4.43,4.43,4.43,0,0,1-1.18.15,4,4,0,0,1-.85-.08,4.53,4.53,0,0,0,4.21,3.14A9.05,9.05,0,0,1,15.08,32,7.64,7.64,0,0,1,14,31.91,12.83,12.83,0,0,0,33.76,21.1c0-.2,0-.39,0-.58A9,9,0,0,0,36,18.18Z"/></svg>