<svg id="Layer_1" data-name="Layer 1" xmlns="http://www.w3.org/2000/svg" viewBox="0 0 50 50"><defs><style>.cls-1{fill:#40729b;}.cls-2{fill:#fff;}</style></defs><title>i-instagram</title><circle class="cls-1" cx="25" cy="25" r="25"/><path class="cls-2" d="M28.75,15h-7.5A6.25,6.25,0,0,0,15,21.25v7.5A6.25,6.25,0,0,0,21.25,35h7.5A6.25,6.25,0,0,0,35,28.75v-7.5A6.25,6.25,0,0,0,28.75,15Zm4.37,13.75a4.37,4.37,0,0,1-4.37,4.37h-7.5a4.37,4.37,0,0,1-4.37-4.37v-7.5a4.37,4.37,0,0,1,4.37-4.37h7.5a4.37,4.37,0,0,1,4.37,4.37Z"/><path class="cls-2" d="M25,20a5,5,0,1,0,5,5A5,5,0,0,0,25,20Zm0,8.12A3.12,3.12,0,1,1,28.12,25,3.12,3.12,0,0,1,25,28.12Z"/><circle class="cls-2" cx="30.38" cy="19.62" r="0.67"/></svg>